<svg xmlns="http://www.w3.org/2000/svg" xmlns:xlink="http://www.w3.org/1999/xlink" width="64" viewBox="0 0 48 48" height="64" preserveAspectRatio="xMidYMid meet"><defs><clipPath id="de718ed8f0"><path d="M 1.519531 1.027344 L 47.507812 1.027344 L 47.507812 47.019531 L 1.519531 47.019531 Z M 1.519531 1.027344 " clip-rule="nonzero"></path></clipPath></defs><g clip-path="url(#de718ed8f0)"><path fill="#c3a582" d="M 45.492188 24.265625 L 47.65625 19.105469 C 47.796875 18.78125 47.820312 18.449219 47.726562 18.109375 C 47.636719 17.769531 47.449219 17.492188 47.167969 17.28125 L 42.714844 13.902344 L 42.007812 8.34375 C 41.964844 7.996094 41.820312 7.695312 41.570312 7.449219 C 41.320312 7.199219 41.023438 7.050781 40.671875 7.007812 L 35.117188 6.304688 L 31.738281 1.851562 C 31.527344 1.570312 31.25 1.382812 30.910156 1.292969 C 30.570312 1.199219 30.238281 1.222656 29.910156 1.359375 L 24.753906 3.523438 L 19.597656 1.359375 C 19.273438 1.222656 18.9375 1.199219 18.597656 1.292969 C 18.257812 1.382812 17.980469 1.570312 17.769531 1.851562 L 14.390625 6.304688 L 8.835938 7.007812 C 8.484375 7.054688 8.1875 7.199219 7.9375 7.449219 C 7.6875 7.695312 7.542969 7.996094 7.5 8.34375 L 6.792969 13.902344 L 2.339844 17.28125 C 2.058594 17.492188 1.871094 17.769531 1.78125 18.109375 C 1.6875 18.449219 1.710938 18.78125 1.851562 19.105469 L 4.015625 24.265625 L 1.851562 29.421875 C 1.710938 29.746094 1.6875 30.078125 1.78125 30.421875 C 1.871094 30.761719 2.058594 31.039062 2.339844 31.25 L 6.792969 34.625 L 7.5 40.183594 C 7.542969 40.53125 7.6875 40.832031 7.9375 41.082031 C 8.1875 41.328125 8.484375 41.476562 8.835938 41.519531 L 14.390625 42.226562 L 17.769531 46.675781 C 17.980469 46.960938 18.257812 47.144531 18.597656 47.238281 C 18.9375 47.328125 19.269531 47.304688 19.597656 47.167969 L 24.753906 45.003906 L 29.910156 47.167969 C 30.238281 47.304688 30.570312 47.328125 30.910156 47.238281 C 31.25 47.144531 31.527344 46.960938 31.738281 46.675781 L 35.117188 42.226562 L 40.671875 41.519531 C 41.023438 41.476562 41.320312 41.328125 41.570312 41.082031 C 41.820312 40.832031 41.964844 40.53125 42.007812 40.183594 L 42.714844 34.625 L 47.167969 31.25 C 47.449219 31.039062 47.636719 30.761719 47.726562 30.421875 C 47.820312 30.078125 47.796875 29.746094 47.65625 29.421875 Z M 35.191406 15.898438 L 23.21875 34.320312 C 23.144531 34.425781 23.058594 34.523438 22.960938 34.609375 C 22.863281 34.695312 22.757812 34.765625 22.644531 34.828125 C 22.527344 34.886719 22.410156 34.933594 22.28125 34.964844 C 22.15625 34.996094 22.027344 35.011719 21.898438 35.011719 C 21.769531 35.011719 21.640625 34.996094 21.515625 34.964844 C 21.390625 34.933594 21.269531 34.886719 21.152344 34.828125 C 21.039062 34.765625 20.933594 34.695312 20.835938 34.609375 C 20.738281 34.523438 20.652344 34.425781 20.578125 34.320312 L 14.253906 24.695312 C 14.148438 24.523438 14.074219 24.339844 14.042969 24.140625 C 14.007812 23.941406 14.011719 23.742188 14.054688 23.546875 C 14.097656 23.347656 14.175781 23.167969 14.289062 23 C 14.40625 22.835938 14.546875 22.695312 14.714844 22.585938 C 14.882812 22.472656 15.066406 22.398438 15.265625 22.363281 C 15.464844 22.324219 15.664062 22.324219 15.859375 22.363281 C 16.058594 22.402344 16.242188 22.476562 16.410156 22.589844 C 16.578125 22.699219 16.71875 22.839844 16.832031 23.003906 L 21.867188 30.679688 L 32.613281 14.210938 C 32.726562 14.042969 32.867188 13.902344 33.039062 13.792969 C 33.207031 13.679688 33.390625 13.605469 33.585938 13.566406 C 33.785156 13.527344 33.984375 13.527344 34.179688 13.566406 C 34.378906 13.605469 34.5625 13.679688 34.730469 13.789062 C 34.898438 13.898438 35.042969 14.039062 35.15625 14.203125 C 35.269531 14.371094 35.347656 14.550781 35.394531 14.75 C 35.4375 14.945312 35.441406 15.144531 35.40625 15.34375 C 35.371094 15.542969 35.300781 15.726562 35.191406 15.898438 Z M 35.191406 15.898438 " fill-opacity="1" fill-rule="nonzero"></path></g></svg>