<svg xmlns="http://www.w3.org/2000/svg" xmlns:xlink="http://www.w3.org/1999/xlink" width="64" viewBox="0 0 48 48" height="64" preserveAspectRatio="xMidYMid meet"><defs><clipPath id="747b0aebc8"><path d="M 32 18 L 46.777344 18 L 46.777344 33 L 32 33 Z M 32 18 " clip-rule="nonzero"></path></clipPath><clipPath id="1c2fd8db8f"><path d="M 1.222656 18 L 16 18 L 16 33 L 1.222656 33 Z M 1.222656 18 " clip-rule="nonzero"></path></clipPath><clipPath id="0f4d9e9d00"><path d="M 7 0.734375 L 22 0.734375 L 22 15 L 7 15 Z M 7 0.734375 " clip-rule="nonzero"></path></clipPath><clipPath id="395b582d77"><path d="M 26 0.734375 L 41 0.734375 L 41 15 L 26 15 Z M 26 0.734375 " clip-rule="nonzero"></path></clipPath><clipPath id="4b82a12e37"><path d="M 17 32 L 31 32 L 31 46.285156 L 17 46.285156 Z M 17 32 " clip-rule="nonzero"></path></clipPath></defs><g clip-path="url(#747b0aebc8)"><path fill="#c3a582" d="M 46.605469 23.160156 C 46.457031 22.792969 46.09375 22.550781 45.695312 22.550781 L 42.359375 22.550781 L 40.660156 19.152344 C 40.324219 18.484375 39.230469 18.484375 38.894531 19.152344 L 37.199219 22.550781 L 33.863281 22.550781 C 33.464844 22.550781 33.105469 22.792969 32.953125 23.160156 C 32.796875 23.53125 32.882812 23.953125 33.164062 24.234375 L 35.75 26.820312 L 34.871094 31.234375 C 34.789062 31.632812 34.964844 32.042969 35.3125 32.261719 C 35.65625 32.480469 36.097656 32.460938 36.425781 32.214844 L 39.78125 29.699219 L 43.132812 32.214844 C 43.308594 32.34375 43.515625 32.410156 43.722656 32.410156 C 43.90625 32.410156 44.089844 32.359375 44.25 32.261719 C 44.597656 32.042969 44.769531 31.632812 44.691406 31.234375 L 43.808594 26.820312 L 46.394531 24.234375 C 46.675781 23.953125 46.757812 23.53125 46.605469 23.160156 Z M 42.042969 25.796875 C 41.808594 26.03125 41.707031 26.367188 41.769531 26.6875 L 42.25 29.089844 L 40.371094 27.679688 C 40.195312 27.546875 39.988281 27.480469 39.78125 27.480469 C 39.574219 27.480469 39.363281 27.546875 39.1875 27.675781 L 37.308594 29.085938 L 37.789062 26.6875 C 37.851562 26.363281 37.75 26.027344 37.515625 25.796875 L 36.242188 24.523438 L 37.808594 24.523438 C 38.179688 24.523438 38.519531 24.3125 38.6875 23.976562 L 39.78125 21.796875 L 40.871094 23.980469 C 41.039062 24.3125 41.378906 24.523438 41.75 24.523438 L 43.316406 24.523438 Z M 42.042969 25.796875 " fill-opacity="1" fill-rule="nonzero"></path></g><g clip-path="url(#1c2fd8db8f)"><path fill="#c3a582" d="M 15.054688 23.160156 C 14.902344 22.792969 14.539062 22.550781 14.140625 22.550781 L 10.804688 22.550781 L 9.109375 19.152344 C 8.773438 18.484375 7.675781 18.484375 7.34375 19.152344 L 5.644531 22.550781 L 2.308594 22.550781 C 1.910156 22.550781 1.550781 22.792969 1.398438 23.160156 C 1.246094 23.53125 1.328125 23.953125 1.613281 24.234375 L 4.195312 26.820312 L 3.316406 31.234375 C 3.234375 31.632812 3.410156 32.042969 3.757812 32.261719 C 4.101562 32.480469 4.542969 32.460938 4.875 32.214844 L 8.226562 29.699219 L 11.578125 32.214844 C 11.753906 32.34375 11.964844 32.410156 12.171875 32.410156 C 12.351562 32.410156 12.535156 32.359375 12.695312 32.257812 C 13.042969 32.042969 13.21875 31.632812 13.136719 31.230469 L 12.253906 26.820312 L 14.839844 24.234375 C 15.121094 23.953125 15.207031 23.53125 15.054688 23.160156 Z M 10.488281 25.796875 C 10.253906 26.03125 10.152344 26.367188 10.21875 26.6875 L 10.695312 29.089844 L 8.816406 27.679688 C 8.640625 27.546875 8.433594 27.480469 8.226562 27.480469 C 8.019531 27.480469 7.808594 27.546875 7.632812 27.679688 L 5.753906 29.089844 L 6.234375 26.6875 C 6.300781 26.367188 6.195312 26.03125 5.964844 25.796875 L 4.691406 24.523438 L 6.253906 24.523438 C 6.625 24.523438 6.96875 24.3125 7.136719 23.976562 L 8.226562 21.796875 L 9.316406 23.980469 C 9.484375 24.3125 9.824219 24.523438 10.199219 24.523438 L 11.761719 24.523438 Z M 10.488281 25.796875 " fill-opacity="1" fill-rule="nonzero"></path></g><g clip-path="url(#0f4d9e9d00)"><path fill="#c3a582" d="M 20.96875 5.414062 C 20.816406 5.042969 20.457031 4.800781 20.058594 4.800781 L 16.722656 4.800781 L 15.023438 1.402344 C 14.6875 0.734375 13.59375 0.734375 13.257812 1.402344 L 11.5625 4.800781 L 8.226562 4.800781 C 7.828125 4.800781 7.46875 5.042969 7.316406 5.410156 C 7.164062 5.777344 7.246094 6.203125 7.527344 6.484375 L 10.113281 9.070312 L 9.230469 13.480469 C 9.152344 13.882812 9.328125 14.292969 9.671875 14.507812 C 10.019531 14.726562 10.460938 14.710938 10.789062 14.464844 L 14.140625 11.953125 L 17.496094 14.464844 C 17.671875 14.597656 17.878906 14.664062 18.085938 14.664062 C 18.269531 14.664062 18.453125 14.613281 18.609375 14.507812 C 18.957031 14.292969 19.132812 13.882812 19.054688 13.480469 L 18.171875 9.070312 L 20.757812 6.488281 C 21.035156 6.203125 21.121094 5.78125 20.96875 5.414062 Z M 16.402344 8.046875 C 16.167969 8.28125 16.070312 8.617188 16.132812 8.941406 L 16.613281 11.339844 L 14.734375 9.929688 C 14.558594 9.796875 14.347656 9.734375 14.140625 9.734375 C 13.933594 9.734375 13.726562 9.796875 13.550781 9.929688 L 11.671875 11.339844 L 12.152344 8.941406 C 12.214844 8.617188 12.113281 8.28125 11.878906 8.046875 L 10.605469 6.773438 L 12.171875 6.773438 C 12.542969 6.773438 12.882812 6.5625 13.050781 6.226562 L 14.140625 4.050781 L 15.234375 6.230469 C 15.398438 6.5625 15.742188 6.773438 16.113281 6.773438 L 17.675781 6.773438 Z M 16.402344 8.046875 " fill-opacity="1" fill-rule="nonzero"></path></g><g clip-path="url(#395b582d77)"><path fill="#c3a582" d="M 40.691406 5.414062 C 40.539062 5.042969 40.179688 4.800781 39.78125 4.800781 L 36.441406 4.800781 L 34.746094 1.402344 C 34.410156 0.734375 33.316406 0.734375 32.980469 1.402344 L 31.28125 4.800781 L 27.945312 4.800781 C 27.546875 4.800781 27.191406 5.042969 27.035156 5.414062 C 26.882812 5.78125 26.96875 6.203125 27.25 6.488281 L 29.835938 9.074219 L 28.953125 13.484375 C 28.871094 13.882812 29.046875 14.292969 29.394531 14.511719 C 29.738281 14.730469 30.183594 14.710938 30.511719 14.464844 L 33.863281 11.953125 L 37.214844 14.464844 C 37.390625 14.597656 37.601562 14.664062 37.808594 14.664062 C 37.992188 14.664062 38.171875 14.613281 38.332031 14.507812 C 38.679688 14.292969 38.855469 13.882812 38.773438 13.480469 L 37.890625 9.074219 L 40.476562 6.488281 C 40.757812 6.203125 40.84375 5.78125 40.691406 5.414062 Z M 36.125 8.046875 C 35.890625 8.285156 35.789062 8.617188 35.855469 8.941406 L 36.335938 11.339844 L 34.453125 9.929688 C 34.277344 9.796875 34.070312 9.734375 33.863281 9.734375 C 33.65625 9.734375 33.449219 9.796875 33.273438 9.929688 L 31.390625 11.339844 L 31.871094 8.941406 C 31.9375 8.617188 31.835938 8.28125 31.601562 8.046875 L 30.328125 6.773438 L 31.890625 6.773438 C 32.265625 6.773438 32.605469 6.5625 32.773438 6.226562 L 33.863281 4.050781 L 34.953125 6.230469 C 35.121094 6.5625 35.460938 6.773438 35.835938 6.773438 L 37.398438 6.773438 Z M 36.125 8.046875 " fill-opacity="1" fill-rule="nonzero"></path></g><g clip-path="url(#4b82a12e37)"><path fill="#c3a582" d="M 30.832031 36.964844 C 30.679688 36.597656 30.316406 36.355469 29.917969 36.355469 L 26.582031 36.355469 L 24.882812 32.957031 C 24.550781 32.289062 23.453125 32.289062 23.121094 32.957031 L 21.421875 36.355469 L 18.085938 36.355469 C 17.6875 36.355469 17.328125 36.597656 17.175781 36.964844 C 17.023438 37.335938 17.105469 37.757812 17.386719 38.039062 L 19.972656 40.625 L 19.09375 45.039062 C 19.011719 45.4375 19.1875 45.847656 19.535156 46.066406 C 19.878906 46.285156 20.324219 46.269531 20.648438 46.019531 L 24.003906 43.503906 L 27.355469 46.019531 C 27.53125 46.148438 27.738281 46.21875 27.949219 46.21875 C 28.128906 46.21875 28.3125 46.164062 28.472656 46.066406 C 28.820312 45.847656 28.996094 45.4375 28.914062 45.039062 L 28.03125 40.625 L 30.617188 38.039062 C 30.898438 37.757812 30.980469 37.335938 30.832031 36.964844 Z M 26.265625 39.601562 C 26.03125 39.835938 25.929688 40.171875 25.996094 40.492188 L 26.472656 42.894531 L 24.59375 41.484375 C 24.417969 41.351562 24.210938 41.285156 24.003906 41.285156 C 23.796875 41.285156 23.585938 41.351562 23.410156 41.480469 L 21.53125 42.890625 L 22.011719 40.492188 C 22.074219 40.167969 21.972656 39.832031 21.742188 39.601562 L 20.464844 38.328125 L 22.03125 38.328125 C 22.402344 38.328125 22.746094 38.117188 22.914062 37.78125 L 24.003906 35.605469 L 25.09375 37.785156 C 25.261719 38.117188 25.601562 38.328125 25.976562 38.328125 L 27.539062 38.328125 Z M 26.265625 39.601562 " fill-opacity="1" fill-rule="nonzero"></path></g><path fill="#c3a582" d="M 20.058594 16.636719 C 19.515625 16.636719 19.074219 17.078125 19.074219 17.621094 L 19.074219 29.453125 C 19.074219 30 19.515625 30.441406 20.058594 30.441406 C 20.601562 30.441406 21.042969 30 21.042969 29.453125 L 21.042969 17.621094 C 21.042969 17.078125 20.601562 16.636719 20.058594 16.636719 Z M 20.058594 16.636719 " fill-opacity="1" fill-rule="nonzero"></path><path fill="#c3a582" d="M 27.945312 16.636719 C 27.402344 16.636719 26.960938 17.078125 26.960938 17.621094 L 26.960938 29.453125 C 26.960938 30 27.402344 30.441406 27.945312 30.441406 C 28.492188 30.441406 28.933594 30 28.933594 29.453125 L 28.933594 17.621094 C 28.933594 17.078125 28.492188 16.636719 27.945312 16.636719 Z M 27.945312 16.636719 " fill-opacity="1" fill-rule="nonzero"></path><path fill="#c3a582" d="M 27.945312 22.550781 L 20.058594 22.550781 C 19.515625 22.550781 19.074219 22.992188 19.074219 23.539062 C 19.074219 24.082031 19.515625 24.523438 20.058594 24.523438 L 27.945312 24.523438 C 28.492188 24.523438 28.933594 24.082031 28.933594 23.539062 C 28.933594 22.992188 28.492188 22.550781 27.945312 22.550781 Z M 27.945312 22.550781 " fill-opacity="1" fill-rule="nonzero"></path></svg>