<svg xmlns="http://www.w3.org/2000/svg" xmlns:xlink="http://www.w3.org/1999/xlink" width="64" viewBox="0 0 48 48" height="64" preserveAspectRatio="xMidYMid meet"><defs><clipPath id="781741ad02"><path d="M 4 2.386719 L 16 2.386719 L 16 14 L 4 14 Z M 4 2.386719 " clip-rule="nonzero"></path></clipPath><clipPath id="6e8d5d2fa1"><path d="M 1.316406 15 L 17 15 L 17 28 L 1.316406 28 Z M 1.316406 15 " clip-rule="nonzero"></path></clipPath><clipPath id="db86e177b3"><path d="M 32 2.386719 L 44 2.386719 L 44 14 L 32 14 Z M 32 2.386719 " clip-rule="nonzero"></path></clipPath><clipPath id="091ab7a20a"><path d="M 31 15 L 46.871094 15 L 46.871094 28 L 31 28 Z M 31 15 " clip-rule="nonzero"></path></clipPath><clipPath id="cdf3f4145e"><path d="M 17 32.617188 L 31 32.617188 L 31 44.859375 L 17 44.859375 Z M 17 32.617188 " clip-rule="nonzero"></path></clipPath></defs><g clip-path="url(#781741ad02)"><path fill="#c3a582" d="M 9.996094 2.535156 C 13.085938 2.535156 15.589844 5.046875 15.589844 8.152344 C 15.589844 11.253906 13.085938 13.773438 9.996094 13.773438 C 6.90625 13.773438 4.398438 11.253906 4.398438 8.152344 C 4.398438 5.046875 6.90625 2.535156 9.996094 2.535156 " fill-opacity="1" fill-rule="nonzero"></path></g><g clip-path="url(#6e8d5d2fa1)"><path fill="#c3a582" d="M 13.152344 27.414062 L 13.675781 23.09375 C 13.964844 20.832031 15.0625 18.910156 16.6875 17.566406 C 15.589844 16.175781 13.917969 15.308594 12.050781 15.308594 L 7.890625 15.308594 C 4.878906 15.308594 2.339844 17.566406 2.007812 20.59375 L 1.433594 25.394531 C 1.339844 26.023438 1.769531 26.597656 2.390625 26.738281 C 4.78125 27.269531 7.363281 27.507812 9.996094 27.507812 C 11.09375 27.558594 12.144531 27.507812 13.152344 27.414062 " fill-opacity="1" fill-rule="nonzero"></path></g><g clip-path="url(#db86e177b3)"><path fill="#c3a582" d="M 38.308594 2.535156 C 41.394531 2.535156 43.898438 5.046875 43.898438 8.152344 C 43.898438 11.253906 41.394531 13.773438 38.308594 13.773438 C 35.214844 13.773438 32.710938 11.253906 32.710938 8.152344 C 32.710938 5.046875 35.214844 2.535156 38.308594 2.535156 " fill-opacity="1" fill-rule="nonzero"></path></g><g clip-path="url(#091ab7a20a)"><path fill="#c3a582" d="M 46.292969 20.542969 C 45.957031 17.519531 43.375 15.261719 40.410156 15.261719 L 36.25 15.261719 C 34.382812 15.261719 32.710938 16.125 31.609375 17.519531 C 33.234375 18.863281 34.382812 20.785156 34.625 23.042969 L 35.148438 27.363281 C 36.152344 27.460938 37.253906 27.507812 38.308594 27.507812 C 40.984375 27.507812 43.519531 27.222656 45.910156 26.738281 C 46.53125 26.597656 46.914062 26.023438 46.863281 25.394531 L 46.292969 20.542969 " fill-opacity="1" fill-rule="nonzero"></path></g><path fill="#c3a582" d="M 32.710938 28.230469 L 32.132812 23.378906 C 31.800781 20.402344 29.269531 18.144531 26.25 18.144531 L 22.09375 18.144531 C 19.082031 18.144531 16.546875 20.402344 16.214844 23.378906 L 15.640625 28.230469 C 15.542969 28.855469 15.972656 29.480469 16.597656 29.578125 C 18.984375 30.101562 21.566406 30.34375 24.199219 30.34375 C 26.875 30.34375 29.410156 30.054688 31.800781 29.578125 C 32.375 29.480469 32.757812 28.855469 32.710938 28.230469 " fill-opacity="1" fill-rule="nonzero"></path><path fill="#c3a582" d="M 24.148438 5.367188 C 27.238281 5.367188 29.746094 7.882812 29.746094 10.988281 C 29.746094 14.09375 27.238281 16.605469 24.148438 16.605469 C 21.058594 16.605469 18.554688 14.09375 18.554688 10.988281 C 18.554688 7.882812 21.058594 5.367188 24.148438 5.367188 " fill-opacity="1" fill-rule="nonzero"></path><g clip-path="url(#cdf3f4145e)"><path fill="#c3a582" d="M 29.410156 36.636719 L 26.96875 36.441406 C 26.585938 36.398438 26.207031 36.152344 26.0625 35.773438 L 25.105469 33.511719 C 24.722656 32.648438 23.480469 32.648438 23.144531 33.511719 L 22.1875 35.773438 C 22.046875 36.152344 21.710938 36.398438 21.28125 36.441406 L 18.886719 36.636719 C 17.933594 36.734375 17.546875 37.882812 18.265625 38.507812 L 20.128906 40.09375 C 20.421875 40.332031 20.5625 40.765625 20.46875 41.148438 L 19.894531 43.554688 C 19.65625 44.464844 20.660156 45.183594 21.46875 44.703125 L 23.578125 43.40625 C 23.910156 43.21875 24.34375 43.21875 24.679688 43.40625 L 26.78125 44.703125 C 27.59375 45.183594 28.59375 44.464844 28.359375 43.554688 L 27.785156 41.148438 C 27.6875 40.765625 27.832031 40.332031 28.121094 40.09375 L 29.984375 38.507812 C 30.75 37.882812 30.367188 36.734375 29.410156 36.636719 " fill-opacity="1" fill-rule="nonzero"></path></g><path fill="#c3a582" d="M 43.566406 33.804688 L 41.128906 33.609375 C 40.746094 33.558594 40.359375 33.320312 40.214844 32.9375 L 39.261719 30.679688 C 38.878906 29.816406 37.632812 29.816406 37.296875 30.679688 L 36.34375 32.9375 C 36.203125 33.320312 35.867188 33.558594 35.433594 33.609375 L 33.042969 33.804688 C 32.089844 33.894531 31.707031 35.050781 32.425781 35.675781 L 34.289062 37.261719 C 34.574219 37.5 34.714844 37.933594 34.625 38.316406 L 34.050781 40.714844 C 33.808594 41.628906 34.8125 42.398438 35.628906 41.871094 L 37.730469 40.574219 C 38.066406 40.378906 38.496094 40.378906 38.832031 40.574219 L 40.9375 41.871094 C 41.75 42.351562 42.753906 41.628906 42.511719 40.714844 L 41.9375 38.316406 C 41.847656 37.933594 41.988281 37.5 42.273438 37.261719 L 44.136719 35.675781 C 44.902344 35.050781 44.519531 33.894531 43.566406 33.804688 " fill-opacity="1" fill-rule="nonzero"></path><path fill="#c3a582" d="M 15.257812 33.804688 L 12.816406 33.609375 C 12.433594 33.558594 12.050781 33.320312 11.90625 32.9375 L 10.953125 30.679688 C 10.566406 29.816406 9.324219 29.816406 8.992188 30.679688 L 8.035156 32.9375 C 7.890625 33.320312 7.554688 33.558594 7.125 33.609375 L 4.734375 33.804688 C 3.777344 33.894531 3.394531 35.050781 4.113281 35.675781 L 5.976562 37.261719 C 6.261719 37.5 6.410156 37.933594 6.3125 38.316406 L 5.738281 40.714844 C 5.5 41.628906 6.503906 42.398438 7.316406 41.871094 L 9.421875 40.574219 C 9.757812 40.378906 10.183594 40.378906 10.519531 40.574219 L 12.625 41.871094 C 13.4375 42.351562 14.441406 41.628906 14.203125 40.714844 L 13.628906 38.316406 C 13.535156 37.933594 13.675781 37.5 13.964844 37.261719 L 15.828125 35.675781 C 16.597656 35.050781 16.214844 33.894531 15.257812 33.804688 " fill-opacity="1" fill-rule="nonzero"></path></svg>