<svg xmlns="http://www.w3.org/2000/svg" xmlns:xlink="http://www.w3.org/1999/xlink" width="64" viewBox="0 0 48 48" height="64" preserveAspectRatio="xMidYMid meet"><defs><clipPath id="bd7b2fe5b1"><path d="M 0.867188 1.261719 L 47.152344 1.261719 L 47.152344 46 L 0.867188 46 Z M 0.867188 1.261719 " clip-rule="nonzero"></path></clipPath></defs><g clip-path="url(#bd7b2fe5b1)"><path fill="#c3a582" d="M 3.417969 42.125 L 4.585938 42.125 L 4.585938 41.648438 C 4.585938 38.667969 4.578125 35.6875 4.585938 32.707031 C 4.585938 32.210938 4.667969 31.734375 4.832031 31.269531 C 4.996094 30.800781 5.234375 30.378906 5.546875 29.996094 C 5.859375 29.617188 6.226562 29.296875 6.648438 29.046875 C 7.066406 28.792969 7.519531 28.617188 8 28.523438 C 8.355469 28.453125 8.71875 28.449219 9.105469 28.414062 C 8.863281 28.21875 8.644531 28 8.445312 27.761719 C 8.246094 27.523438 8.074219 27.265625 7.925781 26.992188 C 7.777344 26.71875 7.660156 26.433594 7.566406 26.136719 C 7.476562 25.839844 7.414062 25.535156 7.382812 25.226562 C 7.351562 24.917969 7.351562 24.609375 7.382812 24.296875 C 7.414062 23.988281 7.472656 23.683594 7.5625 23.386719 C 7.652344 23.089844 7.769531 22.804688 7.917969 22.527344 C 8.0625 22.253906 8.234375 22 8.433594 21.757812 C 8.628906 21.519531 8.847656 21.300781 9.089844 21.105469 C 9.328125 20.910156 9.585938 20.738281 9.859375 20.597656 C 10.136719 20.453125 10.421875 20.335938 10.71875 20.25 C 11.015625 20.160156 11.316406 20.105469 11.625 20.078125 C 11.933594 20.050781 12.238281 20.054688 12.546875 20.089844 C 12.855469 20.125 13.15625 20.191406 13.449219 20.285156 C 13.742188 20.382812 14.027344 20.507812 14.296875 20.65625 C 14.566406 20.808594 14.816406 20.988281 15.050781 21.1875 C 15.992188 21.992188 16.515625 23.015625 16.621094 24.25 C 16.710938 25.039062 16.601562 25.804688 16.296875 26.535156 C 15.992188 27.269531 15.53125 27.882812 14.910156 28.378906 C 14.945312 28.410156 14.953125 28.421875 14.960938 28.425781 C 15.050781 28.433594 15.140625 28.4375 15.226562 28.441406 C 15.960938 28.449219 16.648438 28.636719 17.285156 29.007812 C 17.921875 29.375 18.425781 29.875 18.800781 30.511719 C 18.925781 30.730469 19.105469 30.863281 19.351562 30.90625 C 19.605469 30.964844 19.847656 31.046875 20.082031 31.152344 C 20.316406 31.257812 20.539062 31.386719 20.75 31.535156 C 20.960938 31.6875 21.152344 31.855469 21.332031 32.046875 C 21.507812 32.234375 21.664062 32.4375 21.800781 32.660156 C 21.9375 32.878906 22.050781 33.109375 22.140625 33.351562 C 22.234375 33.597656 22.300781 33.84375 22.34375 34.101562 C 22.382812 34.355469 22.402344 34.613281 22.394531 34.875 C 22.386719 35.132812 22.351562 35.390625 22.292969 35.640625 C 22.097656 36.429688 21.726562 37.121094 21.183594 37.71875 C 21.332031 37.6875 21.457031 37.613281 21.550781 37.496094 C 22.03125 36.746094 22.6875 36.226562 23.527344 35.941406 C 23.925781 35.8125 24.347656 35.753906 24.757812 35.660156 C 24.746094 35.640625 24.730469 35.617188 24.714844 35.601562 C 22.59375 33.683594 22.410156 30.828125 24.304688 28.753906 C 24.519531 28.53125 24.753906 28.328125 25.007812 28.152344 C 25.257812 27.972656 25.527344 27.824219 25.8125 27.699219 C 26.09375 27.574219 26.386719 27.480469 26.6875 27.414062 C 26.992188 27.351562 27.296875 27.316406 27.605469 27.3125 C 27.914062 27.308594 28.21875 27.335938 28.523438 27.394531 C 28.828125 27.449219 29.121094 27.539062 29.40625 27.65625 C 29.695312 27.773438 29.964844 27.917969 30.222656 28.085938 C 30.480469 28.257812 30.71875 28.453125 30.9375 28.675781 C 30.996094 28.738281 31.070312 28.769531 31.15625 28.769531 C 31.777344 28.632812 32.402344 28.484375 32.984375 28.347656 C 32.730469 28.132812 32.5 27.890625 32.296875 27.625 C 32.09375 27.359375 31.921875 27.074219 31.777344 26.773438 C 31.632812 26.46875 31.523438 26.15625 31.445312 25.828125 C 31.367188 25.503906 31.324219 25.171875 31.316406 24.835938 C 31.308594 24.503906 31.335938 24.167969 31.398438 23.839844 C 31.464844 23.511719 31.558594 23.191406 31.6875 22.882812 C 31.820312 22.574219 31.980469 22.28125 32.171875 22.007812 C 32.363281 21.734375 32.582031 21.480469 32.824219 21.253906 C 33.261719 20.871094 33.753906 20.578125 34.296875 20.375 C 34.839844 20.167969 35.398438 20.070312 35.980469 20.070312 C 36.558594 20.074219 37.121094 20.179688 37.660156 20.386719 C 38.203125 20.59375 38.691406 20.890625 39.125 21.277344 C 39.367188 21.511719 39.585938 21.765625 39.773438 22.042969 C 39.964844 22.320312 40.121094 22.617188 40.25 22.925781 C 40.375 23.238281 40.46875 23.5625 40.527344 23.894531 C 40.585938 24.226562 40.609375 24.558594 40.597656 24.894531 C 40.585938 25.234375 40.539062 25.566406 40.457031 25.890625 C 40.375 26.21875 40.261719 26.53125 40.113281 26.835938 C 39.964844 27.136719 39.785156 27.417969 39.578125 27.683594 C 39.371094 27.949219 39.136719 28.1875 38.875 28.402344 C 39.28125 28.429688 39.679688 28.480469 40.078125 28.554688 C 40.554688 28.660156 41.003906 28.84375 41.417969 29.109375 C 41.835938 29.371094 42.191406 29.699219 42.496094 30.089844 C 42.796875 30.476562 43.023438 30.90625 43.175781 31.378906 C 43.332031 31.847656 43.398438 32.328125 43.386719 32.824219 C 43.386719 35.765625 43.386719 38.707031 43.386719 41.652344 L 43.386719 42.113281 L 44.558594 42.113281 L 44.558594 41.703125 C 44.558594 34.539062 44.5625 27.375 44.566406 20.210938 C 44.585938 19.949219 44.484375 19.75 44.261719 19.617188 C 37.597656 15.019531 30.9375 10.417969 24.28125 5.808594 C 24.195312 5.734375 24.097656 5.695312 23.980469 5.699219 C 23.867188 5.699219 23.769531 5.738281 23.6875 5.816406 C 17.03125 10.425781 10.371094 15.027344 3.707031 19.625 C 3.480469 19.757812 3.378906 19.957031 3.398438 20.21875 C 3.402344 27.382812 3.402344 34.546875 3.398438 41.710938 C 3.398438 41.847656 3.410156 41.984375 3.417969 42.125 Z M 19.453125 12.714844 C 19.726562 12.429688 20.042969 12.203125 20.398438 12.035156 C 20.753906 11.867188 21.128906 11.765625 21.523438 11.734375 C 21.914062 11.703125 22.300781 11.742188 22.679688 11.851562 C 23.058594 11.960938 23.40625 12.132812 23.71875 12.371094 C 23.800781 12.429688 23.878906 12.496094 23.980469 12.574219 C 25.15625 11.640625 26.414062 11.421875 27.753906 12.132812 C 27.949219 12.242188 28.136719 12.371094 28.308594 12.519531 C 28.476562 12.667969 28.632812 12.832031 28.769531 13.011719 C 28.90625 13.195312 29.019531 13.386719 29.117188 13.59375 C 29.210938 13.800781 29.285156 14.015625 29.332031 14.238281 C 29.382812 14.457031 29.410156 14.683594 29.410156 14.910156 C 29.414062 15.136719 29.390625 15.363281 29.347656 15.585938 C 29.300781 15.808594 29.234375 16.023438 29.140625 16.234375 C 29.050781 16.441406 28.9375 16.636719 28.804688 16.820312 C 28.652344 17.023438 28.484375 17.214844 28.304688 17.394531 C 27.074219 18.636719 25.847656 19.878906 24.617188 21.113281 C 24.542969 21.207031 24.453125 21.277344 24.347656 21.328125 C 24.242188 21.378906 24.132812 21.40625 24.015625 21.410156 C 23.898438 21.414062 23.789062 21.390625 23.679688 21.34375 C 23.574219 21.300781 23.480469 21.234375 23.402344 21.144531 C 22.054688 19.804688 20.691406 18.484375 19.394531 17.097656 C 19.117188 16.796875 18.90625 16.460938 18.761719 16.078125 C 18.613281 15.699219 18.542969 15.304688 18.546875 14.894531 C 18.550781 14.488281 18.632812 14.09375 18.789062 13.71875 C 18.945312 13.339844 19.167969 13.007812 19.453125 12.714844 Z M 47.101562 19.621094 C 46.917969 19.503906 46.792969 19.425781 46.675781 19.34375 L 24.6875 4.148438 C 24.082031 3.730469 23.886719 3.730469 23.28125 4.148438 L 1.296875 19.34375 C 1.175781 19.425781 1.050781 19.503906 0.871094 19.625 C 0.871094 18.800781 0.855469 18.050781 0.886719 17.304688 C 0.890625 17.171875 1.070312 17.019531 1.203125 16.925781 C 4.941406 14.367188 8.679688 11.808594 12.421875 9.253906 L 23.675781 1.5625 C 23.769531 1.5 23.863281 1.433594 23.980469 1.359375 C 24.09375 1.429688 24.210938 1.5 24.324219 1.578125 C 31.800781 6.691406 39.285156 11.800781 46.765625 16.910156 C 47.023438 17.054688 47.136719 17.269531 47.109375 17.5625 C 47.085938 18.222656 47.101562 18.886719 47.101562 19.621094 Z M 41.777344 32.847656 C 41.777344 35.664062 41.777344 38.476562 41.777344 41.289062 L 41.777344 41.765625 L 34.378906 41.765625 C 34.378906 41.113281 34.378906 40.488281 34.378906 39.863281 C 34.378906 37.511719 32.992188 35.964844 30.664062 35.714844 C 30.613281 35.703125 30.566406 35.691406 30.519531 35.671875 C 31.328125 35.011719 31.867188 34.171875 32.140625 33.160156 C 32.390625 32.140625 32.324219 31.144531 31.945312 30.167969 C 32.222656 30.117188 32.503906 30.078125 32.789062 30.058594 C 34.882812 30.050781 36.980469 30.039062 39.078125 30.058594 C 39.445312 30.046875 39.800781 30.113281 40.140625 30.25 C 40.480469 30.386719 40.78125 30.589844 41.039062 30.855469 C 41.292969 31.121094 41.488281 31.425781 41.617188 31.773438 C 41.746094 32.121094 41.800781 32.476562 41.777344 32.847656 Z M 1.71875 43.789062 L 46.261719 43.789062 L 46.261719 45.972656 L 1.71875 45.972656 Z M 13.386719 39.070312 C 12.800781 39.867188 12.722656 40.785156 12.761719 41.777344 L 6.195312 41.777344 L 6.195312 41.320312 C 6.195312 38.496094 6.195312 35.667969 6.195312 32.84375 C 6.171875 32.476562 6.226562 32.121094 6.351562 31.777344 C 6.476562 31.433594 6.667969 31.128906 6.921875 30.863281 C 7.175781 30.601562 7.46875 30.398438 7.808594 30.257812 C 8.144531 30.117188 8.496094 30.054688 8.859375 30.0625 C 10.96875 30.03125 13.074219 30.046875 15.183594 30.058594 C 15.988281 30.046875 16.652344 30.351562 17.171875 30.96875 C 16.847656 31.082031 16.539062 31.230469 16.253906 31.421875 C 15.96875 31.613281 15.710938 31.839844 15.484375 32.097656 C 15.257812 32.355469 15.0625 32.636719 14.910156 32.945312 C 14.753906 33.253906 14.640625 33.578125 14.566406 33.914062 C 14.496094 34.253906 14.464844 34.59375 14.480469 34.9375 C 14.496094 35.285156 14.554688 35.621094 14.65625 35.949219 C 14.757812 36.28125 14.902344 36.59375 15.082031 36.886719 C 15.265625 37.179688 15.480469 37.441406 15.730469 37.679688 C 14.761719 37.816406 13.980469 38.28125 13.386719 39.070312 Z M 24.105469 41.761719 C 24.191406 40.480469 23.933594 39.300781 22.863281 38.417969 C 23.066406 38.082031 23.339844 37.816406 23.679688 37.621094 C 24.023438 37.429688 24.390625 37.332031 24.78125 37.332031 C 26.703125 37.328125 28.617188 37.320312 30.535156 37.335938 C 30.816406 37.335938 31.085938 37.382812 31.347656 37.484375 C 31.609375 37.585938 31.84375 37.734375 32.050781 37.925781 C 32.257812 38.117188 32.417969 38.339844 32.542969 38.59375 C 32.664062 38.847656 32.734375 39.113281 32.753906 39.394531 C 32.8125 40.167969 32.765625 40.949219 32.765625 41.761719 Z M 12 27.777344 C 11.589844 27.78125 11.199219 27.707031 10.824219 27.554688 C 10.445312 27.402344 10.113281 27.179688 9.824219 26.894531 C 9.535156 26.605469 9.3125 26.273438 9.15625 25.894531 C 9 25.515625 8.925781 25.121094 8.925781 24.714844 C 8.925781 24.304688 9.007812 23.910156 9.164062 23.535156 C 9.324219 23.15625 9.546875 22.824219 9.839844 22.539062 C 10.128906 22.253906 10.464844 22.035156 10.84375 21.886719 C 11.21875 21.734375 11.613281 21.664062 12.019531 21.671875 C 12.417969 21.679688 12.796875 21.761719 13.164062 21.921875 C 13.527344 22.082031 13.847656 22.304688 14.128906 22.589844 C 14.40625 22.878906 14.617188 23.207031 14.769531 23.578125 C 14.917969 23.949219 14.992188 24.335938 14.992188 24.734375 C 14.988281 25.136719 14.914062 25.519531 14.761719 25.890625 C 14.609375 26.261719 14.394531 26.585938 14.113281 26.871094 C 13.832031 27.15625 13.511719 27.378906 13.144531 27.535156 C 12.777344 27.691406 12.394531 27.769531 12 27.777344 Z M 35.960938 27.777344 C 35.558594 27.777344 35.171875 27.699219 34.800781 27.542969 C 34.429688 27.386719 34.101562 27.164062 33.816406 26.878906 C 33.535156 26.589844 33.316406 26.257812 33.160156 25.882812 C 33.007812 25.507812 32.933594 25.121094 32.933594 24.714844 C 32.933594 24.308594 33.011719 23.917969 33.167969 23.546875 C 33.324219 23.171875 33.542969 22.839844 33.828125 22.554688 C 34.117188 22.269531 34.445312 22.050781 34.816406 21.898438 C 35.191406 21.742188 35.578125 21.667969 35.980469 21.667969 C 36.382812 21.671875 36.769531 21.75 37.140625 21.90625 C 37.511719 22.0625 37.839844 22.285156 38.121094 22.574219 C 38.40625 22.863281 38.625 23.195312 38.777344 23.570312 C 38.925781 23.945312 39.003906 24.335938 39 24.742188 C 39 25.144531 38.921875 25.535156 38.765625 25.90625 C 38.613281 26.28125 38.394531 26.609375 38.109375 26.894531 C 37.824219 27.179688 37.496094 27.398438 37.121094 27.550781 C 36.75 27.703125 36.363281 27.78125 35.960938 27.777344 Z M 27.691406 35.035156 C 27.289062 35.035156 26.902344 34.960938 26.527344 34.804688 C 26.15625 34.652344 25.828125 34.433594 25.542969 34.148438 C 25.253906 33.863281 25.035156 33.53125 24.878906 33.160156 C 24.722656 32.785156 24.644531 32.394531 24.644531 31.992188 C 24.644531 31.585938 24.71875 31.195312 24.871094 30.820312 C 25.023438 30.445312 25.242188 30.113281 25.527344 29.828125 C 25.808594 29.539062 26.136719 29.316406 26.507812 29.160156 C 26.878906 29.003906 27.265625 28.925781 27.667969 28.925781 C 28.070312 28.921875 28.457031 29 28.832031 29.152344 C 29.203125 29.308594 29.53125 29.527344 29.816406 29.8125 C 30.101562 30.097656 30.324219 30.425781 30.476562 30.800781 C 30.632812 31.175781 30.710938 31.5625 30.714844 31.96875 C 30.714844 32.375 30.640625 32.765625 30.488281 33.136719 C 30.335938 33.511719 30.117188 33.84375 29.832031 34.132812 C 29.550781 34.417969 29.222656 34.640625 28.851562 34.796875 C 28.480469 34.953125 28.09375 35.035156 27.691406 35.035156 Z M 14.375 41.773438 C 14.277344 41.210938 14.351562 40.671875 14.59375 40.15625 C 14.722656 39.90625 14.90625 39.703125 15.144531 39.550781 C 15.378906 39.402344 15.636719 39.320312 15.917969 39.308594 C 17.605469 39.289062 19.292969 39.273438 20.980469 39.332031 C 21.1875 39.347656 21.386719 39.398438 21.578125 39.488281 C 21.765625 39.582031 21.929688 39.703125 22.074219 39.859375 C 22.214844 40.015625 22.320312 40.191406 22.394531 40.390625 C 22.46875 40.585938 22.5 40.792969 22.496094 41.003906 C 22.5 41.246094 22.496094 41.484375 22.496094 41.773438 Z M 16.074219 34.746094 C 16.074219 34.433594 16.132812 34.132812 16.253906 33.839844 C 16.371094 33.550781 16.539062 33.296875 16.761719 33.074219 C 16.980469 32.851562 17.234375 32.679688 17.519531 32.558594 C 17.804688 32.4375 18.105469 32.375 18.417969 32.371094 C 18.726562 32.375 19.027344 32.433594 19.3125 32.554688 C 19.601562 32.671875 19.855469 32.839844 20.078125 33.058594 C 20.300781 33.277344 20.472656 33.53125 20.597656 33.816406 C 20.722656 34.101562 20.789062 34.402344 20.800781 34.714844 C 20.804688 35.03125 20.746094 35.335938 20.628906 35.628906 C 20.511719 35.921875 20.339844 36.183594 20.121094 36.410156 C 19.898438 36.632812 19.644531 36.808594 19.355469 36.933594 C 19.066406 37.054688 18.761719 37.117188 18.449219 37.121094 C 18.132812 37.125 17.832031 37.066406 17.539062 36.949219 C 17.246094 36.832031 16.988281 36.660156 16.765625 36.4375 C 16.542969 36.214844 16.371094 35.957031 16.25 35.664062 C 16.128906 35.371094 16.070312 35.066406 16.074219 34.746094 Z M 20.695312 16.136719 C 20.53125 15.988281 20.402344 15.8125 20.3125 15.609375 C 20.21875 15.410156 20.171875 15.195312 20.167969 14.972656 C 20.160156 14.753906 20.199219 14.539062 20.285156 14.332031 C 20.367188 14.128906 20.488281 13.945312 20.644531 13.792969 C 20.800781 13.636719 20.984375 13.519531 21.1875 13.4375 C 21.394531 13.359375 21.605469 13.320312 21.828125 13.328125 C 22.046875 13.339844 22.257812 13.390625 22.457031 13.484375 C 22.65625 13.582031 22.828125 13.710938 22.972656 13.878906 C 23.769531 14.734375 24.140625 14.804688 25.011719 13.867188 C 25.15625 13.703125 25.332031 13.574219 25.527344 13.480469 C 25.726562 13.386719 25.933594 13.339844 26.152344 13.332031 C 26.371094 13.324219 26.582031 13.359375 26.785156 13.441406 C 26.992188 13.519531 27.171875 13.636719 27.328125 13.792969 C 27.484375 13.945312 27.601562 14.125 27.683594 14.328125 C 27.769531 14.535156 27.808594 14.746094 27.804688 14.964844 C 27.800781 15.183594 27.757812 15.394531 27.667969 15.597656 C 27.578125 15.796875 27.453125 15.972656 27.292969 16.125 C 26.207031 17.234375 25.109375 18.335938 23.953125 19.503906 C 23.742188 19.261719 23.5625 19.03125 23.359375 18.824219 C 22.472656 17.925781 21.574219 17.039062 20.695312 16.136719 Z M 20.695312 16.136719 " fill-opacity="1" fill-rule="nonzero"></path></g></svg>