<svg xmlns="http://www.w3.org/2000/svg" xmlns:xlink="http://www.w3.org/1999/xlink" width="64" viewBox="0 0 48 48" height="64" preserveAspectRatio="xMidYMid meet"><defs><clipPath id="2434594240"><path d="M 1.039062 0.550781 L 47.328125 0.550781 L 47.328125 46.835938 L 1.039062 46.835938 Z M 1.039062 0.550781 " clip-rule="nonzero"></path></clipPath></defs><g clip-path="url(#2434594240)"><path fill="#c3a582" d="M 47.332031 23.691406 C 47.332031 24.449219 47.292969 25.207031 47.21875 25.960938 C 47.144531 26.714844 47.035156 27.464844 46.886719 28.207031 C 46.738281 28.949219 46.554688 29.683594 46.332031 30.410156 C 46.113281 31.136719 45.859375 31.847656 45.570312 32.546875 C 45.277344 33.25 44.953125 33.933594 44.597656 34.601562 C 44.238281 35.269531 43.851562 35.917969 43.429688 36.550781 C 43.007812 37.179688 42.558594 37.789062 42.078125 38.375 C 41.597656 38.960938 41.085938 39.519531 40.550781 40.054688 C 40.015625 40.59375 39.453125 41.101562 38.867188 41.582031 C 38.28125 42.0625 37.675781 42.511719 37.042969 42.933594 C 36.414062 43.355469 35.765625 43.746094 35.097656 44.101562 C 34.429688 44.460938 33.742188 44.78125 33.042969 45.074219 C 32.34375 45.363281 31.628906 45.617188 30.90625 45.839844 C 30.179688 46.058594 29.445312 46.242188 28.703125 46.390625 C 27.957031 46.539062 27.210938 46.648438 26.457031 46.722656 C 25.699219 46.796875 24.945312 46.835938 24.1875 46.835938 C 23.429688 46.835938 22.671875 46.796875 21.917969 46.722656 C 21.164062 46.648438 20.414062 46.539062 19.671875 46.390625 C 18.929688 46.242188 18.195312 46.058594 17.46875 45.839844 C 16.742188 45.617188 16.03125 45.363281 15.328125 45.074219 C 14.628906 44.78125 13.945312 44.460938 13.277344 44.101562 C 12.609375 43.746094 11.960938 43.355469 11.328125 42.933594 C 10.699219 42.511719 10.089844 42.0625 9.503906 41.582031 C 8.917969 41.101562 8.359375 40.59375 7.820312 40.054688 C 7.285156 39.519531 6.777344 38.960938 6.296875 38.375 C 5.816406 37.789062 5.363281 37.179688 4.945312 36.550781 C 4.523438 35.917969 4.132812 35.269531 3.777344 34.601562 C 3.417969 33.933594 3.09375 33.25 2.804688 32.546875 C 2.515625 31.847656 2.257812 31.136719 2.039062 30.410156 C 1.820312 29.683594 1.636719 28.949219 1.488281 28.207031 C 1.339844 27.464844 1.230469 26.714844 1.15625 25.960938 C 1.082031 25.207031 1.042969 24.449219 1.042969 23.691406 C 1.042969 22.933594 1.082031 22.175781 1.15625 21.421875 C 1.230469 20.667969 1.339844 19.917969 1.488281 19.175781 C 1.636719 18.433594 1.820312 17.699219 2.039062 16.972656 C 2.257812 16.246094 2.515625 15.535156 2.804688 14.835938 C 3.09375 14.132812 3.417969 13.449219 3.777344 12.78125 C 4.132812 12.113281 4.523438 11.464844 4.945312 10.832031 C 5.363281 10.203125 5.816406 9.59375 6.296875 9.007812 C 6.777344 8.421875 7.285156 7.863281 7.820312 7.328125 C 8.359375 6.789062 8.917969 6.28125 9.503906 5.800781 C 10.089844 5.320312 10.699219 4.871094 11.328125 4.449219 C 11.960938 4.027344 12.609375 3.636719 13.277344 3.28125 C 13.945312 2.921875 14.628906 2.601562 15.328125 2.308594 C 16.03125 2.019531 16.742188 1.765625 17.46875 1.542969 C 18.195312 1.324219 18.929688 1.140625 19.671875 0.992188 C 20.414062 0.84375 21.164062 0.734375 21.917969 0.660156 C 22.671875 0.585938 23.429688 0.546875 24.1875 0.546875 C 24.945312 0.546875 25.699219 0.585938 26.457031 0.660156 C 27.210938 0.734375 27.957031 0.84375 28.703125 0.992188 C 29.445312 1.140625 30.179688 1.324219 30.90625 1.542969 C 31.628906 1.765625 32.34375 2.019531 33.042969 2.308594 C 33.742188 2.601562 34.429688 2.921875 35.097656 3.28125 C 35.765625 3.636719 36.414062 4.027344 37.042969 4.449219 C 37.675781 4.871094 38.28125 5.320312 38.867188 5.800781 C 39.453125 6.28125 40.015625 6.789062 40.550781 7.328125 C 41.085938 7.863281 41.597656 8.421875 42.078125 9.007812 C 42.558594 9.59375 43.007812 10.203125 43.429688 10.832031 C 43.851562 11.464844 44.238281 12.113281 44.597656 12.78125 C 44.953125 13.449219 45.277344 14.132812 45.570312 14.835938 C 45.859375 15.535156 46.113281 16.246094 46.332031 16.972656 C 46.554688 17.699219 46.738281 18.433594 46.886719 19.175781 C 47.035156 19.917969 47.144531 20.667969 47.21875 21.421875 C 47.292969 22.175781 47.332031 22.933594 47.332031 23.691406 Z M 47.332031 23.691406 " fill-opacity="1" fill-rule="nonzero"></path></g><path fill="#ffffff" d="M 34.164062 18.667969 C 34.15625 18.015625 34.085938 17.371094 33.953125 16.734375 C 33.820312 16.097656 33.628906 15.480469 33.375 14.882812 C 33.121094 14.28125 32.8125 13.714844 32.445312 13.175781 C 32.082031 12.636719 31.667969 12.140625 31.203125 11.683594 C 30.742188 11.222656 30.238281 10.816406 29.695312 10.457031 C 29.152344 10.097656 28.582031 9.792969 27.980469 9.546875 C 27.378906 9.300781 26.757812 9.113281 26.121094 8.988281 C 25.480469 8.859375 24.835938 8.796875 24.1875 8.796875 C 23.535156 8.796875 22.890625 8.859375 22.253906 8.988281 C 21.617188 9.113281 20.996094 9.300781 20.394531 9.546875 C 19.792969 9.792969 19.21875 10.097656 18.679688 10.457031 C 18.136719 10.816406 17.632812 11.222656 17.171875 11.683594 C 16.707031 12.140625 16.292969 12.636719 15.929688 13.175781 C 15.5625 13.714844 15.253906 14.28125 15 14.882812 C 14.746094 15.480469 14.554688 16.097656 14.421875 16.734375 C 14.289062 17.371094 14.21875 18.015625 14.210938 18.667969 C 14.207031 20.5 14.675781 22.199219 15.613281 23.773438 L 24.1875 38.695312 L 32.761719 23.773438 C 33.699219 22.199219 34.167969 20.5 34.164062 18.667969 Z M 24.1875 13.984375 C 24.492188 13.984375 24.796875 14.015625 25.101562 14.074219 C 25.402344 14.136719 25.695312 14.222656 25.976562 14.339844 C 26.261719 14.457031 26.53125 14.601562 26.789062 14.773438 C 27.042969 14.945312 27.28125 15.140625 27.496094 15.355469 C 27.714844 15.574219 27.910156 15.808594 28.078125 16.066406 C 28.25 16.320312 28.394531 16.589844 28.511719 16.875 C 28.628906 17.160156 28.71875 17.453125 28.777344 17.753906 C 28.839844 18.054688 28.867188 18.359375 28.867188 18.667969 C 28.867188 18.972656 28.839844 19.277344 28.777344 19.582031 C 28.71875 19.882812 28.628906 20.175781 28.511719 20.457031 C 28.394531 20.742188 28.25 21.011719 28.078125 21.269531 C 27.910156 21.523438 27.714844 21.761719 27.496094 21.976562 C 27.28125 22.195312 27.042969 22.390625 26.789062 22.558594 C 26.53125 22.730469 26.261719 22.875 25.976562 22.992188 C 25.695312 23.109375 25.402344 23.199219 25.101562 23.257812 C 24.796875 23.320312 24.492188 23.347656 24.1875 23.347656 C 23.878906 23.347656 23.574219 23.320312 23.273438 23.257812 C 22.972656 23.199219 22.679688 23.109375 22.394531 22.992188 C 22.109375 22.875 21.839844 22.730469 21.585938 22.558594 C 21.328125 22.390625 21.09375 22.195312 20.875 21.976562 C 20.660156 21.761719 20.464844 21.523438 20.292969 21.269531 C 20.121094 21.011719 19.980469 20.742188 19.859375 20.457031 C 19.742188 20.175781 19.65625 19.882812 19.59375 19.582031 C 19.535156 19.277344 19.503906 18.972656 19.503906 18.667969 C 19.503906 18.359375 19.535156 18.054688 19.59375 17.753906 C 19.65625 17.453125 19.742188 17.160156 19.859375 16.875 C 19.980469 16.589844 20.121094 16.320312 20.292969 16.066406 C 20.464844 15.808594 20.660156 15.574219 20.875 15.355469 C 21.09375 15.140625 21.328125 14.945312 21.585938 14.773438 C 21.839844 14.601562 22.109375 14.457031 22.394531 14.339844 C 22.679688 14.222656 22.972656 14.136719 23.273438 14.074219 C 23.574219 14.015625 23.878906 13.984375 24.1875 13.984375 Z M 24.1875 13.984375 " fill-opacity="1" fill-rule="nonzero"></path></svg>