<svg xmlns="http://www.w3.org/2000/svg" xmlns:xlink="http://www.w3.org/1999/xlink" width="64" viewBox="0 0 48 48" height="64" preserveAspectRatio="xMidYMid meet"><defs><clipPath id="6dc957d6f8"><path d="M 1.445312 0.957031 L 46.261719 0.957031 L 46.261719 45.769531 L 1.445312 45.769531 Z M 1.445312 0.957031 " clip-rule="nonzero"></path></clipPath></defs><g clip-path="url(#6dc957d6f8)"><path fill="#c3a582" d="M 46.261719 23.363281 C 46.261719 35.738281 36.230469 45.769531 23.851562 45.769531 C 11.476562 45.769531 1.445312 35.738281 1.445312 23.363281 C 1.445312 10.988281 11.476562 0.957031 23.851562 0.957031 C 36.230469 0.957031 46.261719 10.988281 46.261719 23.363281 " fill-opacity="1" fill-rule="nonzero"></path></g><path fill="#ffffff" d="M 35.382812 24.378906 C 35.382812 24.6875 35.273438 24.984375 35.070312 25.21875 L 30.511719 30.46875 C 29.917969 31.109375 29.082031 31.492188 28.273438 31.492188 L 23.230469 31.492188 C 22.34375 31.492188 21.507812 31.839844 20.878906 32.46875 L 20.0625 33.285156 L 14.949219 28.171875 L 16.144531 26.976562 C 16.691406 26.429688 17.417969 26.128906 18.191406 26.128906 L 28.199219 26.128906 C 28.527344 26.128906 28.835938 26.257812 29.070312 26.492188 C 29.273438 26.695312 29.398438 26.964844 29.425781 27.25 C 29.425781 27.25 29.425781 27.253906 29.425781 27.253906 C 29.429688 27.289062 29.429688 27.324219 29.429688 27.363281 C 29.429688 28.042969 28.875 28.59375 28.199219 28.59375 L 22.847656 28.59375 C 22.726562 28.59375 22.632812 28.691406 22.632812 28.8125 C 22.632812 28.933594 22.726562 29.03125 22.847656 29.03125 L 28.199219 29.03125 C 29.117188 29.03125 29.863281 28.28125 29.863281 27.363281 C 29.863281 27.34375 29.863281 27.324219 29.863281 27.304688 L 33.132812 23.539062 C 33.597656 23.003906 34.40625 22.949219 34.941406 23.410156 C 35.222656 23.65625 35.382812 24.007812 35.382812 24.378906 " fill-opacity="1" fill-rule="nonzero"></path><path fill="#ffffff" d="M 19.753906 33.59375 L 17.4375 35.910156 L 12.324219 30.800781 L 14.640625 28.480469 L 19.753906 33.59375 " fill-opacity="1" fill-rule="nonzero"></path><path fill="#ffffff" d="M 30.699219 17.5 L 27.59375 14.394531 L 27.59375 12.089844 C 27.59375 11.816406 27.371094 11.589844 27.09375 11.589844 C 26.820312 11.589844 26.597656 11.816406 26.597656 12.089844 L 26.597656 13.398438 L 24.15625 10.957031 C 24.0625 10.863281 23.933594 10.8125 23.808594 10.816406 C 23.679688 10.8125 23.554688 10.863281 23.457031 10.957031 L 16.917969 17.5 C 16.726562 17.691406 16.726562 18.003906 16.917969 18.195312 C 17.015625 18.289062 17.140625 18.339844 17.265625 18.339844 C 17.390625 18.339844 17.519531 18.289062 17.613281 18.195312 L 23.808594 12 L 30 18.195312 C 30.097656 18.289062 30.222656 18.339844 30.351562 18.339844 C 30.476562 18.339844 30.601562 18.289062 30.699219 18.195312 C 30.890625 18.003906 30.890625 17.691406 30.699219 17.5 " fill-opacity="1" fill-rule="nonzero"></path><path fill="#ffffff" d="M 23.804688 12.660156 L 19.078125 17.390625 L 19.078125 24.011719 L 22.683594 24.011719 L 22.683594 20.558594 L 24.929688 20.558594 L 24.929688 24.011719 L 28.535156 24.011719 L 28.535156 17.386719 L 23.808594 12.660156 L 23.804688 12.660156 " fill-opacity="1" fill-rule="nonzero"></path></svg>