<svg xmlns="http://www.w3.org/2000/svg" xmlns:xlink="http://www.w3.org/1999/xlink" width="64" viewBox="0 0 48 48" height="64" preserveAspectRatio="xMidYMid meet"><defs><clipPath id="163c68ecda"><path d="M 1.152344 0.332031 L 47.425781 0.332031 L 47.425781 46.617188 L 1.152344 46.617188 Z M 1.152344 0.332031 " clip-rule="nonzero"></path></clipPath></defs><path fill="#c3a582" d="M 28.3125 11.40625 L 33.339844 11.40625 L 33.339844 14.421875 L 28.3125 14.421875 L 28.3125 11.40625 " fill-opacity="1" fill-rule="nonzero"></path><path fill="#c3a582" d="M 30.320312 17.4375 L 33.339844 17.4375 L 33.339844 20.457031 L 30.320312 20.457031 L 30.320312 17.4375 " fill-opacity="1" fill-rule="nonzero"></path><path fill="#c3a582" d="M 30.320312 23.472656 L 33.339844 23.472656 L 33.339844 26.488281 L 30.320312 26.488281 L 30.320312 23.472656 " fill-opacity="1" fill-rule="nonzero"></path><path fill="#c3a582" d="M 30.320312 29.511719 L 33.339844 29.511719 L 33.339844 32.527344 L 30.320312 32.527344 L 30.320312 29.511719 " fill-opacity="1" fill-rule="nonzero"></path><path fill="#c3a582" d="M 36.359375 11.40625 L 41.386719 11.40625 L 41.386719 14.421875 L 36.359375 14.421875 L 36.359375 11.40625 " fill-opacity="1" fill-rule="nonzero"></path><path fill="#c3a582" d="M 7.6875 23.472656 L 12.71875 23.472656 L 12.71875 26.488281 L 7.6875 26.488281 L 7.6875 23.472656 " fill-opacity="1" fill-rule="nonzero"></path><path fill="#c3a582" d="M 15.738281 23.472656 L 20.769531 23.472656 L 20.769531 26.488281 L 15.738281 26.488281 L 15.738281 23.472656 " fill-opacity="1" fill-rule="nonzero"></path><path fill="#c3a582" d="M 7.6875 29.511719 L 12.71875 29.511719 L 12.71875 32.527344 L 7.6875 32.527344 L 7.6875 29.511719 " fill-opacity="1" fill-rule="nonzero"></path><path fill="#c3a582" d="M 15.738281 29.511719 L 20.769531 29.511719 L 20.769531 32.527344 L 15.738281 32.527344 L 15.738281 29.511719 " fill-opacity="1" fill-rule="nonzero"></path><path fill="#c3a582" d="M 36.359375 17.4375 L 41.386719 17.4375 L 41.386719 20.457031 L 36.359375 20.457031 L 36.359375 17.4375 " fill-opacity="1" fill-rule="nonzero"></path><path fill="#c3a582" d="M 36.359375 23.472656 L 41.386719 23.472656 L 41.386719 26.488281 L 36.359375 26.488281 L 36.359375 23.472656 " fill-opacity="1" fill-rule="nonzero"></path><path fill="#c3a582" d="M 36.359375 29.511719 L 41.386719 29.511719 L 41.386719 32.527344 L 36.359375 32.527344 L 36.359375 29.511719 " fill-opacity="1" fill-rule="nonzero"></path><g clip-path="url(#163c68ecda)"><path fill="#c3a582" d="M 39.878906 43.601562 L 39.878906 35.542969 L 30.824219 35.542969 L 30.824219 43.601562 L 27.3125 43.601562 L 27.3125 21.179688 C 27.3125 21.121094 27.289062 21.074219 27.28125 21.015625 C 27.324219 20.546875 27.175781 20.066406 26.789062 19.734375 L 25.304688 18.457031 L 25.304688 11.617188 L 34.851562 3.789062 L 44.402344 11.621094 L 44.402344 43.601562 Z M 33.84375 43.59375 L 33.84375 38.5625 L 36.859375 38.5625 L 36.859375 43.59375 Z M 18.753906 43.601562 L 18.753906 35.542969 L 9.703125 35.542969 L 9.703125 43.601562 L 4.167969 43.601562 L 4.167969 21.570312 L 14.230469 12.890625 L 24.296875 21.566406 L 24.296875 43.601562 Z M 12.71875 43.59375 L 12.71875 38.5625 L 15.738281 38.5625 L 15.738281 43.59375 Z M 47.371094 11.183594 C 47.46875 10.65625 47.304688 10.101562 46.867188 9.742188 L 35.808594 0.671875 C 35.25 0.214844 34.453125 0.214844 33.894531 0.671875 L 22.835938 9.742188 C 22.425781 10.082031 22.265625 10.589844 22.320312 11.085938 L 22.289062 11.085938 L 22.289062 15.855469 L 15.214844 9.757812 C 14.648438 9.269531 13.816406 9.269531 13.246094 9.757812 L 1.671875 19.734375 C 1.289062 20.066406 1.140625 20.546875 1.183594 21.015625 C 1.179688 21.074219 1.152344 21.121094 1.152344 21.179688 L 1.152344 45.105469 C 1.152344 45.9375 1.824219 46.617188 2.660156 46.617188 L 25.804688 46.617188 C 25.886719 46.617188 25.957031 46.582031 26.035156 46.566406 C 26.117188 46.582031 26.191406 46.617188 26.273438 46.617188 L 45.914062 46.617188 C 46.746094 46.617188 47.425781 45.941406 47.425781 45.109375 L 47.425781 11.433594 C 47.425781 11.34375 47.386719 11.265625 47.371094 11.183594 " fill-opacity="1" fill-rule="nonzero"></path></g></svg>