<svg xmlns="http://www.w3.org/2000/svg" xmlns:xlink="http://www.w3.org/1999/xlink" width="64" viewBox="0 0 48 48" height="64" preserveAspectRatio="xMidYMid meet"><defs><clipPath id="18a1932dee"><path d="M 2.679688 0 L 46.027344 0 L 46.027344 46.285156 L 2.679688 46.285156 Z M 2.679688 0 " clip-rule="nonzero"></path></clipPath></defs><g clip-path="url(#18a1932dee)"><path fill="#c3a582" d="M 24.339844 7.898438 C 20.449219 7.945312 16.800781 9.492188 14.0625 12.253906 C 11.324219 15.019531 9.816406 18.683594 9.816406 22.574219 C 9.816406 26.972656 11.769531 31.101562 15.175781 33.902344 C 16.25 34.785156 16.867188 36.097656 16.867188 37.5 L 16.867188 41.164062 C 16.867188 43.972656 19.160156 46.261719 21.976562 46.261719 L 27.058594 46.261719 C 29.878906 46.261719 32.171875 43.972656 32.171875 41.164062 L 32.171875 37.5 C 32.171875 36.101562 32.796875 34.785156 33.886719 33.882812 C 37.34375 31.027344 39.289062 26.824219 39.222656 22.34375 C 39.097656 14.28125 32.425781 7.800781 24.339844 7.898438 Z M 27.058594 44.238281 L 21.976562 44.238281 C 20.441406 44.238281 19.167969 43.113281 18.933594 41.648438 L 30.105469 41.648438 C 29.871094 43.113281 28.59375 44.238281 27.058594 44.238281 Z M 30.140625 39.625 L 18.894531 39.625 L 18.894531 38.511719 L 30.140625 38.511719 Z M 32.59375 32.324219 C 31.300781 33.390625 30.46875 34.871094 30.21875 36.484375 L 18.816406 36.484375 C 18.574219 34.867188 17.746094 33.394531 16.464844 32.339844 C 13.527344 29.925781 11.84375 26.367188 11.84375 22.570312 C 11.84375 15.679688 17.460938 10.003906 24.363281 9.921875 C 24.417969 9.921875 24.46875 9.921875 24.519531 9.921875 C 31.417969 9.921875 37.089844 15.476562 37.195312 22.375 C 37.25 26.234375 35.574219 29.863281 32.59375 32.324219 Z M 23.503906 4.8125 L 23.503906 1.035156 C 23.503906 0.476562 23.957031 0.0234375 24.519531 0.0234375 C 25.078125 0.0234375 25.53125 0.476562 25.53125 1.035156 L 25.53125 4.8125 C 25.53125 5.371094 25.078125 5.824219 24.519531 5.824219 C 23.957031 5.824219 23.503906 5.371094 23.503906 4.8125 Z M 32.054688 6.644531 L 33.945312 3.375 C 34.226562 2.890625 34.847656 2.726562 35.332031 3.003906 C 35.816406 3.285156 35.984375 3.902344 35.703125 4.386719 L 33.8125 7.65625 C 33.625 7.984375 33.28125 8.164062 32.933594 8.164062 C 32.761719 8.164062 32.585938 8.121094 32.425781 8.027344 C 31.941406 7.75 31.777344 7.128906 32.054688 6.644531 Z M 42.832031 12.367188 L 39.554688 14.253906 C 39.398438 14.34375 39.222656 14.390625 39.050781 14.390625 C 38.699219 14.390625 38.359375 14.207031 38.171875 13.882812 C 37.890625 13.398438 38.058594 12.78125 38.542969 12.5 L 41.820312 10.613281 C 42.304688 10.332031 42.925781 10.5 43.203125 10.984375 C 43.484375 11.464844 43.316406 12.085938 42.832031 12.367188 Z M 46.023438 21.820312 C 46.023438 22.378906 45.570312 22.832031 45.011719 22.832031 L 41.226562 22.832031 C 40.667969 22.832031 40.214844 22.378906 40.214844 21.820312 C 40.214844 21.257812 40.667969 20.808594 41.226562 20.808594 L 45.011719 20.808594 C 45.570312 20.808594 46.023438 21.257812 46.023438 21.820312 Z M 13.289062 4.222656 C 13.007812 3.738281 13.175781 3.117188 13.660156 2.839844 C 14.144531 2.558594 14.765625 2.726562 15.046875 3.207031 L 16.9375 6.476562 C 17.21875 6.960938 17.050781 7.582031 16.566406 7.859375 C 16.40625 7.953125 16.234375 7.996094 16.0625 7.996094 C 15.710938 7.996094 15.371094 7.816406 15.179688 7.492188 Z M 9.820312 14.097656 C 9.648438 14.097656 9.476562 14.054688 9.316406 13.964844 L 6.039062 12.074219 C 5.554688 11.796875 5.386719 11.175781 5.667969 10.691406 C 5.949219 10.207031 6.566406 10.042969 7.054688 10.320312 L 10.328125 12.210938 C 10.8125 12.488281 10.980469 13.109375 10.699219 13.59375 C 10.511719 13.917969 10.171875 14.097656 9.820312 14.097656 Z M 8.492188 21.484375 C 8.492188 22.042969 8.039062 22.496094 7.476562 22.496094 L 3.695312 22.496094 C 3.132812 22.496094 2.679688 22.042969 2.679688 21.484375 C 2.679688 20.925781 3.132812 20.472656 3.695312 20.472656 L 7.476562 20.472656 C 8.039062 20.472656 8.492188 20.925781 8.492188 21.484375 Z M 8.492188 21.484375 " fill-opacity="1" fill-rule="nonzero"></path></g></svg>