<svg xmlns="http://www.w3.org/2000/svg" xmlns:xlink="http://www.w3.org/1999/xlink" width="64" viewBox="0 0 48 48" height="64" preserveAspectRatio="xMidYMid meet"><defs><clipPath id="5ab6b09894"><path d="M 13 1.761719 L 46.921875 1.761719 L 46.921875 36 L 13 36 Z M 13 1.761719 " clip-rule="nonzero"></path></clipPath><clipPath id="dfa0b41a84"><path d="M 1.371094 1.761719 L 46.921875 1.761719 L 46.921875 47.019531 L 1.371094 47.019531 Z M 1.371094 1.761719 " clip-rule="nonzero"></path></clipPath></defs><g clip-path="url(#5ab6b09894)"><path fill="#c3a582" d="M 41.964844 1.84375 L 14.875 1.84375 C 14.71875 1.84375 14.566406 1.875 14.417969 1.933594 C 14.273438 1.996094 14.144531 2.082031 14.03125 2.191406 C 13.921875 2.304688 13.832031 2.433594 13.773438 2.582031 C 13.710938 2.726562 13.683594 2.878906 13.683594 3.039062 C 13.683594 3.195312 13.710938 3.347656 13.773438 3.496094 C 13.832031 3.640625 13.921875 3.769531 14.03125 3.882812 C 14.144531 3.992188 14.273438 4.082031 14.417969 4.140625 C 14.566406 4.203125 14.71875 4.230469 14.875 4.230469 L 41.964844 4.230469 C 42.300781 4.230469 42.621094 4.296875 42.929688 4.425781 C 43.242188 4.554688 43.515625 4.738281 43.75 4.972656 C 43.988281 5.210938 44.171875 5.484375 44.300781 5.792969 C 44.429688 6.101562 44.492188 6.425781 44.492188 6.761719 L 44.492188 33.847656 C 44.492188 34.007812 44.523438 34.160156 44.585938 34.304688 C 44.644531 34.453125 44.730469 34.582031 44.84375 34.695312 C 44.957031 34.804688 45.085938 34.890625 45.230469 34.953125 C 45.378906 35.011719 45.53125 35.042969 45.6875 35.042969 C 45.847656 35.042969 46 35.011719 46.144531 34.953125 C 46.292969 34.890625 46.421875 34.804688 46.53125 34.695312 C 46.644531 34.582031 46.730469 34.453125 46.792969 34.304688 C 46.851562 34.160156 46.882812 34.007812 46.882812 33.847656 L 46.882812 6.761719 C 46.882812 6.4375 46.851562 6.117188 46.785156 5.800781 C 46.722656 5.484375 46.628906 5.179688 46.507812 4.878906 C 46.382812 4.582031 46.230469 4.296875 46.050781 4.03125 C 45.871094 3.761719 45.667969 3.511719 45.441406 3.285156 C 45.210938 3.058594 44.964844 2.851562 44.695312 2.671875 C 44.425781 2.492188 44.144531 2.34375 43.84375 2.21875 C 43.546875 2.09375 43.238281 2 42.921875 1.9375 C 42.605469 1.875 42.285156 1.84375 41.964844 1.84375 Z M 41.964844 1.84375 " fill-opacity="1" fill-rule="nonzero"></path></g><g clip-path="url(#dfa0b41a84)"><path fill="#c3a582" d="M 42.808594 37.746094 C 42.695312 37.640625 42.5625 37.554688 42.417969 37.496094 C 42.273438 37.4375 42.121094 37.410156 41.964844 37.410156 C 41.804688 37.410156 41.65625 37.4375 41.507812 37.496094 C 41.363281 37.554688 41.234375 37.640625 41.117188 37.746094 C 41.007812 37.859375 40.921875 37.988281 40.859375 38.136719 C 40.800781 38.28125 40.769531 38.433594 40.769531 38.59375 C 40.769531 38.75 40.800781 38.902344 40.859375 39.050781 C 40.921875 39.195312 41.007812 39.324219 41.117188 39.4375 L 42.804688 41.121094 L 10.132812 41.121094 C 9.796875 41.121094 9.476562 41.058594 9.164062 40.929688 C 8.855469 40.800781 8.582031 40.617188 8.34375 40.378906 C 8.109375 40.144531 7.925781 39.871094 7.796875 39.558594 C 7.667969 39.25 7.605469 38.925781 7.605469 38.59375 L 7.605469 5.921875 L 9.289062 7.605469 C 9.402344 7.714844 9.53125 7.796875 9.679688 7.855469 C 9.824219 7.914062 9.976562 7.945312 10.132812 7.945312 C 10.289062 7.945312 10.441406 7.914062 10.585938 7.855469 C 10.734375 7.796875 10.863281 7.714844 10.976562 7.605469 C 11.089844 7.492188 11.175781 7.363281 11.238281 7.21875 C 11.296875 7.070312 11.328125 6.917969 11.328125 6.761719 C 11.328125 6.601562 11.296875 6.449219 11.238281 6.304688 C 11.175781 6.15625 11.089844 6.027344 10.976562 5.917969 L 7.253906 2.191406 C 7.140625 2.085938 7.011719 2 6.863281 1.941406 C 6.71875 1.882812 6.566406 1.855469 6.410156 1.855469 C 6.253906 1.855469 6.101562 1.882812 5.953125 1.941406 C 5.808594 2 5.679688 2.085938 5.566406 2.191406 L 1.839844 5.917969 C 1.730469 6.027344 1.640625 6.15625 1.582031 6.304688 C 1.519531 6.449219 1.492188 6.601562 1.492188 6.761719 C 1.492188 6.917969 1.519531 7.070312 1.582031 7.21875 C 1.640625 7.363281 1.730469 7.492188 1.839844 7.605469 C 1.953125 7.714844 2.085938 7.796875 2.230469 7.855469 C 2.375 7.914062 2.527344 7.945312 2.683594 7.945312 C 2.84375 7.945312 2.992188 7.914062 3.140625 7.855469 C 3.285156 7.796875 3.414062 7.714844 3.53125 7.605469 L 5.214844 5.921875 L 5.214844 38.59375 C 5.214844 38.914062 5.246094 39.234375 5.308594 39.550781 C 5.375 39.867188 5.46875 40.175781 5.589844 40.472656 C 5.714844 40.773438 5.867188 41.054688 6.046875 41.324219 C 6.226562 41.59375 6.429688 41.839844 6.65625 42.070312 C 6.886719 42.296875 7.132812 42.5 7.402344 42.679688 C 7.671875 42.859375 7.953125 43.011719 8.25 43.136719 C 8.550781 43.257812 8.855469 43.351562 9.175781 43.414062 C 9.492188 43.480469 9.808594 43.511719 10.132812 43.511719 L 42.804688 43.511719 L 41.117188 45.195312 C 41.007812 45.308594 40.921875 45.4375 40.859375 45.582031 C 40.800781 45.730469 40.769531 45.882812 40.769531 46.039062 C 40.769531 46.199219 40.796875 46.351562 40.859375 46.496094 C 40.917969 46.644531 41.007812 46.773438 41.117188 46.886719 C 41.230469 46.996094 41.359375 47.082031 41.507812 47.144531 C 41.652344 47.203125 41.804688 47.234375 41.964844 47.234375 C 42.121094 47.234375 42.273438 47.203125 42.421875 47.144531 C 42.566406 47.082031 42.695312 46.996094 42.808594 46.882812 L 46.53125 43.160156 C 46.644531 43.046875 46.730469 42.917969 46.792969 42.773438 C 46.851562 42.628906 46.882812 42.472656 46.882812 42.316406 C 46.882812 42.15625 46.851562 42.003906 46.792969 41.859375 C 46.730469 41.710938 46.644531 41.582031 46.53125 41.472656 Z M 42.808594 37.746094 " fill-opacity="1" fill-rule="nonzero"></path></g><path fill="#c3a582" d="M 29.566406 32.628906 C 29.722656 32.628906 29.875 32.601562 30.023438 32.539062 C 30.167969 32.480469 30.296875 32.390625 30.410156 32.28125 C 30.523438 32.167969 30.609375 32.039062 30.667969 31.894531 C 30.730469 31.746094 30.761719 31.59375 30.761719 31.4375 L 30.761719 19.917969 C 30.761719 19.453125 30.695312 19.003906 30.558594 18.5625 C 30.421875 18.121094 30.222656 17.710938 29.964844 17.328125 C 29.703125 16.949219 29.390625 16.617188 29.03125 16.328125 C 28.667969 16.042969 28.269531 15.816406 27.839844 15.652344 C 27.410156 15.484375 26.964844 15.386719 26.503906 15.355469 C 26.042969 15.324219 25.589844 15.363281 25.140625 15.46875 C 24.691406 15.578125 24.269531 15.75 23.871094 15.984375 C 23.476562 16.222656 23.121094 16.511719 22.8125 16.851562 C 22.382812 16.375 21.871094 16.003906 21.285156 15.742188 C 20.695312 15.480469 20.082031 15.347656 19.4375 15.34375 C 18.660156 15.34375 17.929688 15.535156 17.253906 15.917969 C 17.246094 15.761719 17.210938 15.613281 17.144531 15.472656 C 17.078125 15.332031 16.988281 15.207031 16.875 15.101562 C 16.761719 14.996094 16.628906 14.914062 16.484375 14.859375 C 16.339844 14.804688 16.1875 14.777344 16.03125 14.78125 C 15.875 14.785156 15.726562 14.816406 15.585938 14.878906 C 15.441406 14.941406 15.316406 15.027344 15.207031 15.140625 C 15.097656 15.25 15.011719 15.378906 14.953125 15.523438 C 14.894531 15.667969 14.867188 15.816406 14.867188 15.972656 L 14.867188 31.4375 C 14.867188 31.59375 14.894531 31.746094 14.957031 31.894531 C 15.015625 32.039062 15.105469 32.167969 15.214844 32.28125 C 15.328125 32.394531 15.457031 32.480469 15.601562 32.539062 C 15.75 32.601562 15.902344 32.628906 16.058594 32.628906 C 16.21875 32.628906 16.371094 32.601562 16.519531 32.539062 C 16.664062 32.480469 16.792969 32.394531 16.90625 32.28125 C 17.015625 32.167969 17.101562 32.039062 17.164062 31.894531 C 17.226562 31.746094 17.253906 31.59375 17.253906 31.4375 L 17.253906 19.917969 C 17.253906 19.628906 17.3125 19.347656 17.421875 19.082031 C 17.535156 18.816406 17.691406 18.582031 17.894531 18.375 C 18.101562 18.171875 18.335938 18.015625 18.601562 17.90625 C 18.871094 17.792969 19.148438 17.738281 19.4375 17.738281 C 19.726562 17.738281 20.003906 17.792969 20.269531 17.90625 C 20.539062 18.015625 20.773438 18.171875 20.976562 18.375 C 21.183594 18.582031 21.339844 18.816406 21.453125 19.082031 C 21.5625 19.347656 21.617188 19.628906 21.617188 19.917969 L 21.617188 31.4375 C 21.617188 31.59375 21.648438 31.746094 21.710938 31.894531 C 21.769531 32.039062 21.855469 32.167969 21.96875 32.28125 C 22.082031 32.394531 22.210938 32.480469 22.355469 32.539062 C 22.503906 32.601562 22.65625 32.628906 22.8125 32.628906 C 22.972656 32.628906 23.125 32.601562 23.269531 32.539062 C 23.417969 32.480469 23.546875 32.394531 23.65625 32.28125 C 23.769531 32.167969 23.855469 32.039062 23.917969 31.894531 C 23.976562 31.746094 24.007812 31.59375 24.007812 31.4375 L 24.007812 19.917969 C 24.007812 19.628906 24.0625 19.347656 24.175781 19.082031 C 24.285156 18.816406 24.441406 18.578125 24.648438 18.375 C 24.851562 18.171875 25.085938 18.011719 25.355469 17.902344 C 25.621094 17.792969 25.898438 17.738281 26.1875 17.738281 C 26.480469 17.738281 26.757812 17.792969 27.023438 17.902344 C 27.292969 18.011719 27.527344 18.171875 27.730469 18.375 C 27.9375 18.578125 28.09375 18.816406 28.203125 19.082031 C 28.316406 19.347656 28.371094 19.628906 28.371094 19.917969 L 28.371094 31.4375 C 28.371094 31.59375 28.402344 31.746094 28.460938 31.894531 C 28.523438 32.039062 28.609375 32.167969 28.722656 32.28125 C 28.832031 32.390625 28.960938 32.480469 29.109375 32.539062 C 29.253906 32.601562 29.40625 32.628906 29.566406 32.628906 Z M 29.566406 32.628906 " fill-opacity="1" fill-rule="nonzero"></path><path fill="#c3a582" d="M 38.878906 16.03125 L 39.070312 15.773438 C 39.472656 15.183594 39.671875 14.527344 39.671875 13.8125 C 39.671875 13.34375 39.582031 12.894531 39.40625 12.460938 C 39.226562 12.027344 38.96875 11.644531 38.640625 11.316406 C 38.308594 10.984375 37.925781 10.730469 37.492188 10.550781 C 37.0625 10.371094 36.609375 10.28125 36.140625 10.28125 C 35.675781 10.28125 35.222656 10.371094 34.789062 10.550781 C 34.359375 10.730469 33.976562 10.984375 33.644531 11.316406 C 33.3125 11.644531 33.058594 12.027344 32.878906 12.460938 C 32.699219 12.894531 32.609375 13.34375 32.609375 13.8125 C 32.609375 13.96875 32.640625 14.121094 32.703125 14.269531 C 32.761719 14.414062 32.847656 14.542969 32.960938 14.65625 C 33.074219 14.769531 33.203125 14.855469 33.347656 14.914062 C 33.496094 14.976562 33.648438 15.007812 33.804688 15.007812 C 33.964844 15.007812 34.117188 14.976562 34.261719 14.914062 C 34.410156 14.855469 34.539062 14.769531 34.648438 14.65625 C 34.761719 14.542969 34.847656 14.414062 34.910156 14.269531 C 34.96875 14.121094 35 13.96875 35 13.8125 C 35 13.636719 35.039062 13.46875 35.117188 13.3125 C 35.195312 13.152344 35.304688 13.023438 35.445312 12.914062 C 35.582031 12.808594 35.738281 12.734375 35.910156 12.699219 C 36.082031 12.664062 36.253906 12.667969 36.425781 12.710938 C 36.59375 12.753906 36.746094 12.835938 36.882812 12.949219 C 37.015625 13.0625 37.117188 13.199219 37.1875 13.359375 C 37.257812 13.519531 37.289062 13.6875 37.285156 13.863281 C 37.277344 14.039062 37.230469 14.207031 37.148438 14.359375 L 33.421875 18.359375 C 33.21875 18.578125 33.089844 18.832031 33.039062 19.128906 C 32.988281 19.425781 33.023438 19.710938 33.140625 19.984375 C 33.257812 20.257812 33.445312 20.480469 33.695312 20.644531 C 33.945312 20.808594 34.21875 20.890625 34.519531 20.890625 L 38.40625 20.890625 C 38.5625 20.890625 38.714844 20.859375 38.863281 20.800781 C 39.007812 20.738281 39.136719 20.652344 39.25 20.542969 C 39.363281 20.429688 39.449219 20.300781 39.507812 20.152344 C 39.570312 20.007812 39.597656 19.855469 39.597656 19.695312 C 39.597656 19.539062 39.570312 19.386719 39.507812 19.238281 C 39.449219 19.09375 39.363281 18.964844 39.25 18.851562 C 39.136719 18.738281 39.007812 18.652344 38.863281 18.59375 C 38.714844 18.53125 38.5625 18.503906 38.40625 18.503906 L 36.566406 18.503906 L 38.792969 16.136719 C 38.824219 16.105469 38.851562 16.070312 38.878906 16.03125 Z M 38.878906 16.03125 " fill-opacity="1" fill-rule="nonzero"></path></svg>