<svg xmlns="http://www.w3.org/2000/svg" xmlns:xlink="http://www.w3.org/1999/xlink" width="64" viewBox="0 0 48 48" height="64" preserveAspectRatio="xMidYMid meet"><defs><clipPath id="8ab8754d53"><path d="M 24 28 L 42 28 L 42 46.726562 L 24 46.726562 Z M 24 28 " clip-rule="nonzero"></path></clipPath><clipPath id="b5a4261f60"><path d="M 0.929688 0.441406 L 47.214844 0.441406 L 47.214844 46.726562 L 0.929688 46.726562 Z M 0.929688 0.441406 " clip-rule="nonzero"></path></clipPath></defs><g clip-path="url(#8ab8754d53)"><path fill="#c3a582" d="M 39.511719 31.296875 L 37.96875 31.296875 L 37.96875 32.839844 L 34.113281 32.839844 L 34.113281 28.210938 L 32.570312 28.210938 L 32.570312 32.839844 L 28.710938 32.839844 L 28.710938 31.296875 L 27.167969 31.296875 L 27.167969 32.839844 L 24.855469 32.839844 L 24.855469 34.382812 L 27.167969 34.382812 L 27.167969 35.925781 L 26.398438 35.925781 C 25.972656 35.925781 25.625 36.273438 25.625 36.699219 L 25.625 45.957031 C 25.625 46.378906 25.972656 46.726562 26.398438 46.726562 L 40.28125 46.726562 C 40.707031 46.726562 41.054688 46.378906 41.054688 45.957031 L 41.054688 36.699219 C 41.054688 36.273438 40.707031 35.925781 40.28125 35.925781 L 39.511719 35.925781 L 39.511719 34.382812 L 41.824219 34.382812 L 41.824219 32.839844 L 39.511719 32.839844 Z M 28.710938 34.382812 L 32.570312 34.382812 L 32.570312 35.925781 L 28.710938 35.925781 Z M 34.882812 45.183594 L 31.796875 45.183594 L 31.796875 41.328125 L 34.882812 41.328125 Z M 39.511719 45.183594 L 36.425781 45.183594 L 36.425781 40.554688 C 36.425781 40.128906 36.078125 39.785156 35.65625 39.785156 L 31.027344 39.785156 C 30.601562 39.785156 30.253906 40.128906 30.253906 40.554688 L 30.253906 45.183594 L 27.167969 45.183594 L 27.167969 37.46875 L 39.511719 37.46875 Z M 37.96875 35.925781 L 34.113281 35.925781 L 34.113281 34.382812 L 37.96875 34.382812 Z M 37.96875 35.925781 " fill-opacity="1" fill-rule="nonzero"></path></g><g clip-path="url(#b5a4261f60)"><path fill="#c3a582" d="M 46.8125 27.546875 L 41.054688 24.09375 L 41.054688 18.183594 L 41.824219 18.183594 C 42.25 18.183594 42.597656 17.835938 42.597656 17.414062 L 42.597656 15.097656 L 43.367188 15.097656 C 43.792969 15.097656 44.140625 14.75 44.140625 14.328125 L 44.140625 9.699219 C 44.140625 9.273438 43.792969 8.925781 43.367188 8.925781 L 38.855469 8.925781 L 11.972656 0.480469 C 11.941406 0.46875 11.902344 0.460938 11.867188 0.449219 C 11.867188 0.449219 11.855469 0.449219 11.855469 0.449219 C 11.816406 0.441406 11.789062 0.441406 11.75 0.441406 C 11.75 0.441406 11.742188 0.441406 11.742188 0.441406 C 11.730469 0.441406 11.722656 0.441406 11.722656 0.441406 C 11.691406 0.441406 11.664062 0.441406 11.632812 0.449219 C 11.625 0.449219 11.605469 0.449219 11.59375 0.460938 C 11.566406 0.46875 11.539062 0.46875 11.507812 0.480469 C 11.5 0.480469 11.488281 0.480469 11.480469 0.488281 C 11.441406 0.5 11.414062 0.519531 11.375 0.539062 C 11.363281 0.539062 11.363281 0.546875 11.355469 0.546875 C 11.324219 0.566406 11.304688 0.574219 11.277344 0.59375 C 11.269531 0.605469 11.257812 0.613281 11.25 0.613281 C 11.238281 0.625 11.230469 0.632812 11.210938 0.644531 L 2.183594 8.925781 L 1.710938 8.925781 C 1.289062 8.925781 0.941406 9.273438 0.941406 9.699219 L 0.941406 18.957031 C 0.941406 19.378906 1.289062 19.726562 1.710938 19.726562 L 6.339844 19.726562 C 6.765625 19.726562 7.113281 19.378906 7.113281 18.957031 L 7.113281 15.097656 L 8.65625 15.097656 L 8.65625 40.554688 L 6.339844 40.554688 C 5.914062 40.554688 5.570312 40.902344 5.570312 41.328125 L 5.570312 45.957031 C 5.570312 46.378906 5.914062 46.726562 6.339844 46.726562 L 17.140625 46.726562 C 17.566406 46.726562 17.910156 46.378906 17.910156 45.957031 L 17.910156 41.328125 C 17.910156 40.902344 17.566406 40.554688 17.140625 40.554688 L 14.824219 40.554688 L 14.824219 15.097656 L 37.96875 15.097656 L 37.96875 17.414062 C 37.96875 17.835938 38.316406 18.183594 38.742188 18.183594 L 39.511719 18.183594 L 39.511719 23.167969 L 35.238281 20.605469 C 34.929688 20.421875 34.546875 20.46875 34.292969 20.71875 L 31.980469 23.035156 C 31.816406 23.199219 31.730469 23.4375 31.757812 23.671875 C 31.789062 23.902344 31.921875 24.113281 32.125 24.238281 L 43.695312 31.183594 C 43.820312 31.257812 43.957031 31.289062 44.09375 31.289062 C 44.292969 31.289062 44.488281 31.210938 44.640625 31.066406 L 46.957031 28.753906 C 47.121094 28.589844 47.207031 28.347656 47.179688 28.117188 C 47.160156 27.882812 47.023438 27.671875 46.8125 27.546875 Z M 41.054688 16.640625 L 39.511719 16.640625 L 39.511719 15.097656 L 41.054688 15.097656 Z M 12.628906 7.382812 L 10.863281 7.382812 L 11.75 4.144531 Z M 11.742188 8.925781 L 12.675781 8.925781 C 13.648438 8.925781 14.480469 9.582031 14.738281 10.46875 L 11.742188 10.46875 Z M 16.320312 10.46875 L 18.363281 10.46875 L 16.367188 12.464844 L 16.367188 11.085938 C 16.367188 10.875 16.347656 10.671875 16.320312 10.46875 Z M 39.511719 10.46875 L 41.507812 10.46875 L 39.511719 12.464844 Z M 34.882812 10.46875 L 36.878906 10.46875 L 34.882812 12.464844 Z M 30.253906 10.46875 L 32.25 10.46875 L 30.253906 12.464844 Z M 25.625 10.46875 L 27.621094 10.46875 L 25.625 12.464844 Z M 20.996094 10.46875 L 22.992188 10.46875 L 20.996094 12.464844 Z M 19.453125 11.558594 L 19.453125 13.554688 L 17.457031 13.554688 Z M 24.082031 11.558594 L 24.082031 13.554688 L 22.085938 13.554688 Z M 28.710938 11.558594 L 28.710938 13.554688 L 26.714844 13.554688 Z M 33.339844 11.558594 L 33.339844 13.554688 L 31.34375 13.554688 Z M 37.96875 11.558594 L 37.96875 13.554688 L 35.972656 13.554688 Z M 40.601562 13.554688 L 42.597656 11.558594 L 42.597656 13.554688 Z M 15.675781 8.925781 C 15.328125 8.445312 14.863281 8.050781 14.335938 7.777344 L 12.859375 2.371094 L 33.714844 8.925781 Z M 10.292969 3.585938 L 9.261719 7.382812 L 7.882812 7.382812 C 7.457031 7.382812 7.113281 7.730469 7.113281 8.15625 L 7.113281 8.925781 L 4.46875 8.925781 Z M 2.484375 10.46875 L 4.027344 10.46875 L 4.027344 13.554688 L 2.484375 13.554688 Z M 5.570312 10.46875 L 7.113281 10.46875 L 7.113281 13.554688 L 5.570312 13.554688 Z M 5.570312 18.183594 L 2.484375 18.183594 L 2.484375 15.097656 L 5.570312 15.097656 Z M 12.195312 15.097656 L 10.199219 17.09375 L 10.199219 15.097656 Z M 13.28125 31.296875 L 11.285156 31.296875 L 13.28125 29.300781 Z M 10.199219 28.210938 L 12.195312 28.210938 L 10.199219 30.207031 Z M 10.199219 23.582031 L 12.195312 23.582031 L 10.199219 25.578125 Z M 10.199219 32.839844 L 12.195312 32.839844 L 10.199219 34.835938 Z M 13.28125 26.667969 L 11.285156 26.667969 L 13.28125 24.671875 Z M 13.28125 22.039062 L 11.558594 22.039062 L 13.28125 20.605469 Z M 10.199219 21.164062 L 10.199219 19.726562 L 11.921875 19.726562 Z M 10.199219 37.46875 L 12.195312 37.46875 L 10.199219 39.464844 Z M 11.285156 35.925781 L 13.28125 33.929688 L 13.28125 35.925781 Z M 13.28125 18.183594 L 11.285156 18.183594 L 13.28125 16.1875 Z M 16.367188 45.183594 L 7.113281 45.183594 L 7.113281 42.097656 L 16.367188 42.097656 Z M 11.285156 40.554688 L 13.28125 38.558594 L 13.28125 40.554688 Z M 8.65625 13.554688 L 8.65625 8.925781 L 10.199219 8.925781 L 10.199219 11.242188 C 10.199219 11.664062 10.542969 12.011719 10.96875 12.011719 L 14.824219 12.011719 L 14.824219 13.554688 Z M 43.984375 29.550781 L 33.773438 23.429688 L 34.960938 22.242188 L 45.171875 28.367188 Z M 43.984375 29.550781 " fill-opacity="1" fill-rule="nonzero"></path></g></svg>